<?xml version="1.0" standalone="no"?>
<!DOCTYPE svg PUBLIC "-//W3C//DTD SVG 20010904//EN"
 "http://www.w3.org/TR/2001/REC-SVG-20010904/DTD/svg10.dtd">
<svg version="1.0" xmlns="http://www.w3.org/2000/svg"
 width="406.000000pt" height="529.000000pt" viewBox="0 0 406.000000 529.000000"
 preserveAspectRatio="xMidYMid meet">

<g transform="translate(0.000000,529.000000) scale(0.100000,-0.100000)"
fill="#000000" stroke="none">
<path d="M1740 4773 c-34 -24 -118 -52 -156 -53 -19 0 -41 -9 -55 -23 -13 -13
-37 -27 -52 -31 -16 -4 -46 -18 -67 -32 -26 -18 -45 -24 -60 -19 -21 7 -21 7
-3 28 l18 21 -27 -17 c-34 -21 -58 -22 -32 -1 17 14 17 15 1 10 -10 -3 -21 -6
-23 -6 -2 0 -4 -8 -4 -17 0 -10 -4 -14 -8 -8 -4 6 -29 18 -57 27 l-50 17 34
-29 c29 -26 31 -30 13 -30 -12 0 -33 -11 -48 -25 -15 -14 -37 -28 -49 -31 -13
-3 -27 -16 -34 -30 -6 -13 -15 -24 -21 -24 -6 0 -9 -4 -6 -9 8 -13 -38 -76
-55 -75 -8 1 -23 5 -33 10 -13 5 -17 4 -13 -3 10 -17 -47 -26 -109 -18 -60 7
-62 5 -80 -80 -7 -32 -16 -44 -49 -62 -22 -12 -53 -22 -70 -23 -22 -2 -24 -4
-10 -7 11 -3 24 -9 29 -14 6 -5 16 -3 25 5 9 8 18 15 21 15 15 0 62 22 57 28
-4 3 1 20 11 37 9 17 17 45 17 61 0 25 5 31 25 33 20 2 22 1 10 -7 -12 -8 -8
-11 18 -11 17 0 32 -3 32 -8 0 -16 -32 -52 -47 -52 -12 0 -13 -3 -3 -15 6 -8
9 -23 5 -35 -5 -16 -12 -19 -33 -14 l-27 5 25 -15 c39 -24 48 -19 55 26 10 60
49 96 97 90 45 -5 56 -28 27 -55 -54 -50 -155 -107 -190 -107 -20 0 -42 -7
-49 -15 -6 -8 -22 -17 -33 -21 -27 -8 -46 -33 -47 -57 0 -10 -4 -15 -10 -12
-5 3 -7 0 -4 -8 2 -7 -8 -26 -23 -42 -18 -18 -24 -29 -16 -32 18 -6 16 -59 -2
-87 -11 -17 -29 -26 -60 -30 -24 -4 -48 -12 -53 -19 -16 -18 -26 -67 -14 -67
14 0 22 -39 10 -47 -6 -3 -8 -1 -4 5 3 6 2 13 -4 17 -6 4 -10 -8 -10 -29 0
-43 -14 -46 -34 -8 -8 15 -15 24 -16 20 0 -11 24 -62 32 -68 4 -3 -2 -25 -14
-49 -17 -35 -24 -41 -42 -36 -49 16 -73 16 -85 1 -11 -13 -8 -14 23 -9 31 5
40 2 60 -22 23 -27 24 -27 56 -10 25 13 29 19 19 25 -11 7 -11 12 2 27 9 10
19 26 22 36 4 10 11 15 17 12 15 -10 12 -30 -8 -48 -16 -15 -17 -23 -8 -67 9
-47 9 -50 -18 -75 -15 -14 -31 -25 -35 -25 -11 0 -24 -31 -16 -38 2 -3 11 1
20 8 8 7 15 8 15 2 0 -14 -29 -36 -37 -28 -3 3 -13 0 -22 -8 -9 -7 -28 -16
-44 -20 l-27 -6 0 69 c0 64 3 73 31 106 20 22 26 35 17 35 -19 0 -58 -42 -58
-63 0 -9 -7 -17 -15 -17 -8 0 -15 -5 -15 -11 0 -5 5 -7 10 -4 6 4 10 -17 10
-55 0 -45 -4 -62 -15 -66 -8 -4 -15 -11 -15 -16 0 -7 20 -8 56 -3 62 7 81 -4
63 -37 -8 -14 -6 -16 7 -11 11 4 14 14 10 34 -4 22 0 31 20 44 14 9 27 15 29
13 2 -2 -3 -20 -10 -40 -12 -35 -11 -37 9 -40 11 -2 21 -10 22 -18 0 -9 -1
-10 -3 -2 -6 17 -23 15 -23 -3 0 -14 -4 -17 -32 -19 -7 -1 -22 -9 -32 -18 -22
-20 -36 -23 -36 -8 0 13 -37 7 -52 -8 -7 -7 -18 -12 -24 -12 -7 0 -16 -5 -20
-12 -5 -8 -2 -9 9 -5 9 3 27 2 39 -2 23 -9 23 -9 -5 -16 -15 -4 -28 -15 -29
-24 0 -9 -2 -20 -3 -26 -2 -5 -3 -14 -4 -20 -1 -5 -8 -2 -15 8 -12 16 -14 15
-20 -14 -9 -44 -9 -43 23 -80 29 -33 30 -33 50 -15 16 15 21 16 25 5 17 -55
17 -56 27 -31 5 13 7 27 4 32 -3 4 7 24 21 45 25 37 25 82 1 69 -7 -3 -1 4 13
15 30 25 65 28 56 5 -3 -9 -6 -18 -6 -20 0 -3 -4 -2 -10 1 -15 9 -12 -8 6 -33
15 -22 15 -24 -2 -37 -11 -8 -24 -13 -30 -10 -7 2 -10 -4 -7 -14 2 -10 -2 -24
-9 -32 -23 -23 -27 -56 -13 -103 12 -40 12 -46 -4 -60 -10 -9 -29 -17 -43 -18
-17 -1 -24 -7 -21 -18 2 -9 -5 -24 -16 -34 -12 -11 -21 -25 -21 -32 0 -7 -17
-26 -39 -43 -42 -33 -72 -88 -54 -99 6 -4 21 -38 33 -76 19 -57 20 -70 9 -77
-24 -15 -27 -10 -34 49 -4 31 -8 62 -10 67 -4 10 -9 -90 -6 -112 1 -7 -5 -13
-14 -13 -9 0 -23 -7 -31 -15 -9 -8 -26 -15 -39 -15 -18 0 -22 -4 -18 -19 3
-13 -2 -24 -16 -33 -27 -17 -28 -48 -1 -48 23 0 23 -2 10 -51 -7 -23 -19 -40
-36 -48 -15 -6 -24 -14 -21 -18 6 -5 14 -3 41 8 11 5 16 -55 5 -72 -6 -11 -12
-10 -27 4 -28 26 -39 20 -13 -7 17 -18 21 -33 18 -65 -2 -22 -11 -49 -20 -59
-22 -25 -23 -64 -1 -55 10 4 24 -4 40 -23 28 -35 30 -44 6 -38 -9 3 -28 1 -42
-5 l-25 -10 30 -2 c17 -1 36 -2 43 -2 16 1 15 -5 -2 -23 -8 -8 -26 -14 -40
-14 -14 0 -26 -4 -26 -10 0 -5 14 -10 30 -10 20 0 33 -6 36 -17 3 -10 15 -39
27 -64 16 -35 25 -45 39 -41 25 6 24 -32 -2 -58 -21 -21 -84 -28 -95 -10 -8
12 -35 13 -35 1 0 -15 73 -28 107 -19 17 4 41 19 51 33 20 25 42 33 42 16 0
-5 -13 -23 -30 -41 -21 -23 -30 -42 -30 -66 0 -23 -5 -34 -15 -34 -7 0 -18 -6
-22 -13 -4 -7 -21 -21 -36 -31 -33 -20 -52 -60 -62 -128 -7 -43 -6 -46 13 -41
11 2 23 0 26 -6 4 -7 -1 -11 -13 -11 -12 0 -21 -4 -21 -10 0 -5 7 -10 15 -10
18 0 19 5 -5 -63 -19 -53 -20 -82 -20 -510 l0 -454 38 -11 c27 -8 46 -24 70
-59 17 -27 32 -51 32 -55 0 -4 19 -27 42 -52 l41 -46 1919 0 1918 0 0 184 c0
138 -3 185 -12 189 -10 3 -10 9 0 26 9 16 12 113 12 393 -1 312 -3 376 -15
392 -19 25 -19 40 0 32 12 -4 15 3 15 29 0 21 -5 35 -12 35 -9 0 -9 3 0 12 21
21 14 55 -13 62 -13 3 -30 16 -36 28 -10 18 -8 24 11 40 13 11 29 17 36 14 9
-4 13 9 12 46 0 49 -16 117 -17 76 -1 -21 -31 -24 -31 -4 0 8 4 17 9 20 4 3 6
18 3 32 -4 24 -2 26 17 21 19 -5 21 -1 21 40 0 26 -6 51 -15 59 -13 14 -15 14
-15 0 0 -9 -4 -16 -9 -16 -23 0 -41 14 -41 32 0 10 4 17 9 13 5 -3 12 -1 16 5
3 5 17 7 31 4 25 -6 34 10 12 20 -10 5 -10 7 0 12 15 7 17 110 2 119 -7 5 -8
11 -1 19 6 7 10 82 9 179 0 150 -2 167 -17 167 -9 0 -21 -4 -27 -10 -11 -11
-96 38 -88 51 2 4 -1 11 -6 14 -11 7 -5 58 9 80 27 44 45 205 22 205 -5 0 -14
12 -19 28 -10 27 -39 60 -101 116 -37 33 -30 50 21 48 27 -1 30 1 15 9 -9 6
-25 8 -35 5 -30 -10 -51 17 -59 79 -3 17 -11 37 -19 46 -8 8 -14 23 -14 32 0
9 -6 17 -12 17 -14 0 -58 62 -58 80 0 6 -9 30 -20 52 -19 40 -27 108 -14 121
4 3 14 2 23 -2 26 -14 74 -17 78 -5 2 7 -15 13 -42 16 -47 6 -74 27 -75 59 0
18 -31 49 -48 49 -7 0 -28 15 -47 33 -27 25 -36 43 -39 77 -14 121 -39 184
-84 211 -24 14 -32 24 -23 27 7 2 17 -2 22 -9 4 -7 11 -10 15 -6 4 4 5 8 3 10
-2 2 -23 18 -45 35 -23 18 -44 32 -47 32 -17 0 -216 196 -217 214 0 5 -12 25
-26 44 -31 40 -93 70 -144 70 -79 0 -140 45 -140 103 0 24 -5 39 -15 43 -8 3
-15 13 -15 23 0 15 2 16 10 3 8 -12 10 -9 10 12 0 19 -4 26 -14 22 -9 -3 -28
18 -55 61 -23 36 -49 69 -58 72 -8 3 -23 24 -33 46 -22 49 -130 143 -174 153
-17 3 -35 9 -41 12 -5 4 -15 7 -22 8 -7 1 -26 9 -43 17 -16 9 -30 12 -30 7 0
-4 -13 -3 -30 3 -23 9 -43 8 -92 -5 -35 -9 -79 -14 -98 -12 -32 5 -33 4 -17
-9 15 -13 13 -14 -25 -10 -24 2 -55 3 -70 3 -22 0 -31 7 -45 36 -10 19 -34 45
-53 56 l-35 20 33 -27 c39 -32 32 -54 -9 -25 -16 12 -34 18 -40 14 -8 -4 -9
-3 -5 4 5 8 0 12 -14 12 -11 0 -23 7 -26 15 -8 20 -24 19 -54 -2z m-200 -130
c-8 -2 -22 -7 -30 -10 -27 -10 -60 -12 -60 -3 0 13 20 18 65 18 22 0 33 -2 25
-5z m-219 -53 c32 0 12 -17 -28 -25 -21 -4 -44 -11 -50 -17 -9 -7 -20 -6 -38
6 -36 24 -31 35 15 34 23 0 44 3 47 6 4 4 13 4 21 1 7 -3 23 -5 33 -5z m159
-40 c0 -5 -10 -10 -22 -10 -19 0 -20 2 -8 10 19 13 30 13 30 0z m-293 -17 c3
-7 -3 -9 -16 -6 -12 3 -21 10 -21 15 0 13 32 6 37 -9z m-52 -43 c-3 -5 -11
-10 -16 -10 -6 0 -7 5 -4 10 3 6 11 10 16 10 6 0 7 -4 4 -10z m-15 -30 c0 -5
-4 -10 -10 -10 -5 0 -10 5 -10 10 0 6 5 10 10 10 6 0 10 -4 10 -10z m10 -60
c-8 -5 -19 -10 -25 -10 -5 0 -3 5 5 10 8 5 20 10 25 10 6 0 3 -5 -5 -10z m123
-47 c-7 -2 -19 -2 -25 0 -7 3 -2 5 12 5 14 0 19 -2 13 -5z m-448 -173 c4 -6
-7 -10 -25 -10 -18 0 -29 4 -25 10 3 6 15 10 25 10 10 0 22 -4 25 -10z m-85
-65 c0 -8 -7 -15 -15 -15 -16 0 -20 12 -8 23 11 12 23 8 23 -8z m-10 -49 c0
-19 -27 -28 -33 -11 -7 15 1 25 20 25 7 0 13 -6 13 -14z m67 -43 c-3 -10 -5
-4 -5 12 0 17 2 24 5 18 2 -7 2 -21 0 -30z m-62 -20 c-3 -41 -4 -45 -14 -39
-10 7 -20 53 -13 61 14 14 29 2 27 -22z m176 -4 c-18 -16 -35 -28 -37 -26 -6
6 47 57 60 57 6 0 -5 -14 -23 -31z m-221 -15 c0 -2 -7 -4 -15 -4 -8 0 -15 4
-15 10 0 5 7 7 15 4 8 -4 15 -8 15 -10z m1550 -84 c0 -5 -2 -10 -4 -10 -3 0
-8 5 -11 10 -3 6 -1 10 4 10 6 0 11 -4 11 -10z m10 -45 c41 -3 95 -12 120 -20
56 -16 52 -15 99 -15 27 0 46 -7 65 -25 15 -14 24 -25 20 -25 -4 0 2 -9 15
-21 13 -13 20 -27 16 -38 -4 -14 0 -17 24 -16 26 1 28 0 18 -17 -10 -16 -9
-21 5 -29 10 -5 15 -16 12 -24 -8 -20 6 -19 20 1 11 14 13 14 25 0 12 -14 12
-16 -2 -10 -11 4 -14 0 -12 -13 2 -10 4 -22 5 -28 0 -5 5 -2 11 8 10 16 13 15
50 -14 27 -21 37 -34 29 -39 -11 -7 -1 -34 28 -80 2 -2 7 2 12 10 8 12 10 10
10 -7 0 -12 10 -29 22 -37 17 -12 20 -18 10 -28 -18 -18 -15 -45 7 -65 13 -12
21 -37 25 -76 6 -61 0 -70 -24 -36 -22 30 -80 68 -96 62 -18 -7 -18 -23 -1
-23 17 0 49 -34 41 -43 -3 -3 5 -11 18 -17 29 -16 78 -67 78 -84 0 -7 14 -49
30 -94 25 -68 30 -98 30 -171 0 -48 -7 -110 -15 -136 -8 -27 -12 -52 -9 -56 2
-4 0 -10 -6 -14 -5 -3 -10 -13 -10 -21 0 -9 -7 -22 -15 -30 -20 -20 -19 -38 1
-30 10 4 14 2 11 -6 -2 -7 -10 -12 -16 -10 -6 1 -16 -10 -21 -25 -6 -16 -15
-38 -21 -50 -6 -11 -8 -26 -5 -32 4 -6 2 -19 -4 -30 -5 -11 -10 -39 -11 -63
-1 -49 -11 -84 -53 -180 -9 -20 -16 -43 -16 -52 0 -9 -4 -16 -10 -16 -5 0 -10
-7 -10 -15 0 -8 -6 -15 -14 -15 -8 0 -18 -9 -21 -20 -4 -11 -20 -35 -36 -53
-17 -17 -39 -50 -49 -73 -11 -22 -26 -47 -35 -54 -8 -7 -15 -19 -15 -26 0 -28
-42 -90 -91 -135 -36 -34 -66 -51 -107 -63 -139 -38 -422 -8 -422 45 0 13 -55
86 -83 112 -28 25 -17 30 31 13 44 -16 82 -11 82 9 0 8 -10 15 -22 17 -13 2
-23 9 -23 16 0 13 -48 42 -71 42 -8 0 -14 5 -14 12 0 7 -12 23 -27 35 -20 18
-29 20 -34 11 -4 -7 -3 -16 4 -20 8 -5 6 -8 -5 -8 -10 0 -18 7 -18 15 0 8 -3
15 -8 15 -4 0 -25 18 -47 39 -48 46 -105 154 -105 198 0 44 -48 206 -65 219
-8 6 -15 16 -15 22 0 6 -16 41 -35 79 -19 37 -35 80 -35 96 0 15 -4 27 -8 27
-10 0 -42 201 -42 267 0 74 17 83 74 41 25 -18 49 -43 52 -55 3 -12 14 -29 25
-39 18 -16 19 -16 19 7 l1 24 17 -21 c15 -18 33 -23 100 -27 46 -3 84 -1 88 4
3 5 10 7 15 3 6 -3 18 1 27 9 9 8 40 18 67 22 28 4 54 10 59 13 5 3 -13 25
-40 49 -27 25 -39 39 -26 33 12 -6 27 -8 32 -5 6 3 7 -1 4 -9 -4 -11 0 -16 13
-16 10 0 24 -5 30 -11 19 -19 35 1 29 35 -4 17 -8 43 -10 58 -5 37 -12 45 -49
62 -76 35 -178 36 -307 5 -96 -23 -111 -24 -160 -12 l-35 9 45 33 c59 43 107
62 136 55 13 -3 24 -2 24 4 0 13 -20 29 -45 35 -19 4 -18 5 2 6 12 0 25 6 28
11 11 19 -5 28 -33 20 -131 -40 -140 -43 -135 -56 3 -9 -2 -14 -12 -14 -14 0
-16 6 -10 42 4 23 16 54 27 68 10 14 21 44 25 65 3 22 19 56 35 75 15 19 28
39 28 44 0 5 11 24 25 42 14 18 25 41 25 52 0 10 8 27 19 36 10 9 21 34 25 54
3 20 13 50 21 66 8 15 15 33 15 40 0 26 159 86 227 86 18 0 33 4 33 8 0 5 31
8 69 7 39 -1 68 1 66 4 -4 7 67 6 165 -4z m-1590 -14 c0 -11 -29 -35 -35 -29
-10 9 7 38 21 38 8 0 14 -4 14 -9z m-100 -12 c0 -8 4 -8 14 0 22 19 30 -6 12
-34 -12 -19 -13 -25 -4 -25 8 0 7 -4 -4 -10 -27 -16 -48 -1 -48 34 0 18 3 36
7 39 10 11 23 8 23 -4z m127 -41 c-3 -8 -6 -5 -6 6 -1 11 2 17 5 13 3 -3 4
-12 1 -19z m-72 -7 c-3 -6 -11 -11 -17 -11 -6 0 -6 6 2 15 14 17 26 13 15 -4z
m30 -15 c-13 -19 -54 -46 -71 -46 -3 0 0 9 6 20 6 11 17 20 25 20 8 0 19 9 25
20 6 11 15 18 20 15 6 -4 3 -16 -5 -29z m222 -73 c-9 -9 -19 -14 -22 -11 -3 3
2 13 11 22 9 9 19 14 22 11 3 -3 -2 -13 -11 -22z m-185 -58 c3 -14 -1 -36 -8
-50 -7 -14 -11 -31 -9 -38 7 -17 -5 -31 -44 -50 -54 -27 -73 -1 -21 30 36 21
39 36 5 27 -24 -6 -25 -4 -19 27 11 64 87 106 96 54z m-130 -107 c-7 -7 -12
-8 -12 -2 0 14 12 26 19 19 2 -3 -1 -11 -7 -17z m2256 -27 c3 -8 -1 -12 -9 -9
-7 2 -15 10 -17 17 -3 8 1 12 9 9 7 -2 15 -10 17 -17z m-2268 -91 c0 -13 -7
-20 -20 -20 -18 0 -19 2 -8 20 7 11 16 20 20 20 5 0 8 -9 8 -20z m40 -49 c0
-6 -4 -13 -10 -16 -5 -3 -10 1 -10 9 0 9 5 16 10 16 6 0 10 -4 10 -9z m2990
-54 c0 -16 -18 3 -23 25 -6 22 -5 22 8 4 8 -11 15 -24 15 -29z m-3135 -87 c-3
-5 -11 -10 -16 -10 -6 0 -7 5 -4 10 3 6 11 10 16 10 6 0 7 -4 4 -10z m100 -57
c-2 -26 -24 -63 -36 -63 -14 0 -2 72 14 82 15 9 24 2 22 -19z m-189 -1 c20
-14 25 -42 6 -43 -10 0 -12 -3 -4 -6 16 -6 15 -33 -2 -33 -9 0 -12 11 -10 34
2 27 -1 33 -12 29 -10 -4 -12 0 -8 11 7 18 13 19 30 8z m2747 -89 c-38 -30
-40 -14 -6 38 l28 43 3 -29 c3 -23 -3 -35 -25 -52z m-2733 -23 c0 -5 -4 -10
-10 -10 -5 0 -10 5 -10 10 0 6 5 10 10 10 6 0 10 -4 10 -10z m2740 -92 c22
-62 21 -221 -2 -244 -14 -14 -20 -15 -33 -4 -12 10 -13 16 -3 29 11 14 11 14
-2 5 -8 -6 -28 -11 -43 -12 -25 -2 -27 1 -21 21 4 12 9 40 10 62 3 69 15 103
38 110 13 4 16 8 9 12 -18 7 -16 23 4 45 23 25 26 23 43 -24z m-1336 1 c-3 -5
-10 -7 -15 -3 -5 3 -7 10 -3 15 3 5 10 7 15 3 5 -3 7 -10 3 -15z m-84 -14 c6
-8 9 -19 6 -24 -4 -5 4 -19 16 -30 l22 -21 -21 0 c-61 0 -97 39 -67 71 21 23
28 23 44 4z m204 -24 c11 -12 25 -21 33 -21 7 0 13 -4 13 -10 0 -5 -12 -7 -28
-4 -15 3 -47 -1 -72 -10 -66 -23 -80 -20 -42 10 17 14 32 33 32 43 0 37 26 34
64 -8z m-114 -7 c0 -8 -4 -12 -10 -9 -5 3 -10 10 -10 16 0 5 5 9 10 9 6 0 10
-7 10 -16z m2055 -184 c10 -11 16 -23 12 -26 -8 -8 -44 13 -51 31 -8 22 18 19
39 -5z m-705 -43 c0 -2 -10 -12 -22 -23 l-23 -19 19 23 c18 21 26 27 26 19z
m-80 -12 c0 -22 -32 -75 -45 -75 -32 0 0 79 33 80 6 0 12 -2 12 -5z m887 -7
c11 -19 14 -88 4 -88 -5 0 -16 13 -24 30 -22 43 -4 95 20 58z m-858 -97 c10
-7 8 -18 -9 -51 -19 -38 -24 -41 -32 -26 -9 16 -12 16 -34 -5 -21 -19 -24 -20
-30 -5 -8 20 4 55 14 40 4 -6 14 -3 25 9 18 18 18 19 -2 24 -12 3 -21 9 -21
13 0 10 73 11 89 1z m-1732 -101 c6 -48 -4 -50 -41 -11 l-28 29 28 15 c16 8
31 14 33 12 2 -3 6 -22 8 -45z m2633 30 c0 -5 -4 -10 -10 -10 -5 0 -10 5 -10
10 0 6 5 10 10 10 6 0 10 -4 10 -10z m-3830 -187 c0 -5 -9 -21 -20 -38 -22
-34 -27 -23 -7 18 11 25 27 36 27 20z m-3 -130 c2 -6 -5 -13 -16 -16 -18 -4
-19 0 -12 31 2 8 25 -5 28 -15z m2690 -15 c-3 -8 -6 -5 -6 6 -1 11 2 17 5 13
3 -3 4 -12 1 -19z m-13 -103 c-28 -56 -54 -88 -54 -66 0 6 3 11 8 11 4 0 21
29 37 64 17 34 31 59 33 55 2 -4 -9 -33 -24 -64z m-2649 35 c3 -5 1 -10 -4
-10 -6 0 -11 5 -11 10 0 6 2 10 4 10 3 0 8 -4 11 -10z m-105 -120 c0 -5 -4
-10 -10 -10 -5 0 -10 5 -10 10 0 6 5 10 10 10 6 0 10 -4 10 -10z m17 -12 c-3
-8 -6 -5 -6 6 -1 11 2 17 5 13 3 -3 4 -12 1 -19z m28 -8 c3 -5 1 -10 -4 -10
-6 0 -11 5 -11 10 0 6 2 10 4 10 3 0 8 -4 11 -10z m111 -155 c-2 -7 1 -16 9
-19 11 -4 11 -10 2 -30 -15 -31 -27 -15 -27 37 0 25 4 36 11 32 6 -4 8 -13 5
-20z m3794 10 c13 -16 8 -18 -27 -9 -13 4 -23 10 -23 15 0 15 37 10 50 -6z
m-3857 -87 c3 -10 4 -18 1 -18 -13 0 -33 30 -40 56 l-7 29 20 -25 c11 -14 22
-33 26 -42z m3731 -126 c-4 -12 -10 -22 -15 -22 -11 0 -12 44 -2 54 12 11 23
-9 17 -32z m-34 19 c0 -12 -20 -25 -27 -18 -7 7 6 27 18 27 5 0 9 -4 9 -9z
m-1488 -44 c-31 -33 -26 -67 5 -36 8 8 13 8 17 0 4 -6 0 -11 -9 -11 -21 0 -16
-29 7 -43 13 -9 22 -5 44 16 28 28 73 37 75 15 8 -101 7 -132 -6 -185 -19 -74
-25 -213 -10 -213 6 0 21 7 33 16 22 15 24 14 43 -7 24 -28 24 -40 -3 -68 -17
-19 -19 -27 -10 -42 7 -10 12 -30 12 -43 0 -27 -6 -30 -135 -57 -76 -17 -363
-17 -470 -1 -82 12 -183 39 -199 53 -4 4 1 10 12 13 28 9 46 58 39 107 -5 35
-2 42 14 46 22 6 24 14 7 31 -9 9 -8 12 6 12 11 0 16 5 13 14 -3 7 -1 18 5 24
7 7 5 18 -6 34 -9 13 -16 40 -16 59 -2 59 12 149 21 143 5 -3 9 2 9 10 0 21
16 20 32 -2 15 -21 78 -52 105 -51 10 0 37 8 61 17 40 15 46 23 69 82 14 36
27 66 28 68 3 4 81 12 152 16 29 1 56 6 60 9 3 4 9 5 11 2 3 -3 -4 -15 -16
-28z m-2142 -11 c0 -14 -4 -28 -10 -31 -6 -4 -10 7 -10 24 0 17 5 31 10 31 6
0 10 -11 10 -24z m3797 -42 c-3 -3 -12 -4 -19 -1 -8 3 -5 6 6 6 11 1 17 -2 13
-5z m-9 -49 c-6 -14 -15 -25 -20 -25 -4 0 -8 11 -8 25 0 18 5 25 20 25 17 0
18 -3 8 -25z m-3859 -16 c11 -18 11 -23 -1 -30 -20 -13 -25 -11 -31 13 -11 40
10 51 32 17z m-50 -11 c-1 -7 1 -21 6 -31 7 -18 -17 -67 -34 -67 -14 0 -20 53
-9 75 10 17 27 34 36 35 2 0 2 -6 1 -12z m3801 -13 c0 -8 -4 -15 -9 -15 -5 0
-11 7 -15 15 -3 9 0 15 9 15 8 0 15 -7 15 -15z m-3680 -46 c0 -24 -42 -26 -60
-4 -14 17 -14 17 15 33 24 13 45 -1 45 -29z m-80 -24 c0 -8 -4 -15 -9 -15 -13
0 -22 16 -14 24 11 11 23 6 23 -9z m3910 -41 c0 -17 -17 -27 -31 -18 -8 4 -7
9 2 15 11 6 11 11 1 21 -20 20 -13 32 8 13 11 -10 20 -24 20 -31z m-105 -14
c3 -5 1 -10 -4 -10 -6 0 -11 5 -11 10 0 6 2 10 4 10 3 0 8 -4 11 -10z m79 -81
c-10 -16 -24 -9 -24 12 0 18 2 19 15 9 8 -7 12 -16 9 -21z m-2240 -173 c-3 -8
-12 -12 -19 -10 -7 3 -16 1 -20 -5 -3 -6 -11 -11 -16 -11 -6 0 -3 7 6 17 9 9
21 28 27 42 l10 26 9 -23 c4 -12 6 -28 3 -36z m2126 -440 c0 -3 -4 -8 -10 -11
-5 -3 -10 -1 -10 4 0 6 5 11 10 11 6 0 10 -2 10 -4z m-48 -28 c-6 -6 -15 -8
-19 -4 -4 4 -1 11 7 16 19 12 27 3 12 -12z m159 -196 c-18 -54 -86 -141 -93
-120 -10 29 17 93 55 130 22 21 43 38 47 38 4 0 0 -22 -9 -48z m-126 -14 c-2
-7 -7 -26 -9 -42 -5 -27 -20 -45 -38 -46 -5 0 -8 5 -8 10 0 6 7 10 14 10 11 0
14 10 12 40 -3 33 0 40 15 40 10 0 16 -5 14 -12z m164 -44 c-17 -21 -31 -17
-17 5 7 11 16 17 20 14 5 -2 4 -11 -3 -19z m-239 -119 c-7 -9 -15 -13 -19 -10
-3 3 1 10 9 15 21 14 24 12 10 -5z m88 -5 c-7 -11 -16 -20 -20 -20 -5 0 -3 9
4 20 7 11 16 20 20 20 5 0 3 -9 -4 -20z m122 5 c0 -8 -7 -15 -15 -15 -9 0 -12
6 -9 15 4 8 10 15 15 15 5 0 9 -7 9 -15z"/>
<path d="M2578 3283 c7 -3 16 -2 19 1 4 3 -2 6 -13 5 -11 0 -14 -3 -6 -6z"/>
<path d="M2625 3280 c3 -5 10 -10 16 -10 5 0 9 5 9 10 0 6 -7 10 -16 10 -8 0
-12 -4 -9 -10z"/>
<path d="M2682 3278 c7 -19 38 -22 38 -4 0 10 -9 16 -21 16 -12 0 -19 -5 -17
-12z"/>
<path d="M2573 3253 c-18 -6 -16 -23 1 -23 17 0 30 16 19 23 -5 2 -14 2 -20 0z"/>
<path d="M1650 3240 c0 -5 7 -10 16 -10 8 0 12 5 9 10 -3 6 -10 10 -16 10 -5
0 -9 -4 -9 -10z"/>
<path d="M1810 3232 c0 -12 19 -26 26 -19 2 2 -2 10 -11 17 -9 8 -15 8 -15 2z"/>
<path d="M2700 3225 c0 -8 5 -15 10 -15 6 0 10 7 10 15 0 8 -4 15 -10 15 -5 0
-10 -7 -10 -15z"/>
<path d="M2496 3213 c2 -7 -1 -13 -6 -13 -6 0 -10 -5 -10 -11 0 -14 42 -7 48
9 2 6 -3 12 -11 12 -9 0 -17 3 -20 8 -2 4 -2 1 -1 -5z"/>
<path d="M1770 3216 c0 -2 7 -7 16 -10 8 -3 12 -2 9 4 -6 10 -25 14 -25 6z"/>
<path d="M1756 3197 c3 -10 9 -15 12 -12 3 3 0 11 -7 18 -10 9 -11 8 -5 -6z"/>
<path d="M1813 3176 c3 -8 1 -17 -6 -20 -9 -3 -8 -8 3 -15 23 -16 29 -13 22
12 -5 20 -4 21 11 8 9 -7 17 -10 17 -5 0 16 -14 29 -34 32 -13 3 -17 -1 -13
-12z"/>
<path d="M1740 3150 c0 -5 7 -10 16 -10 8 0 12 5 9 10 -3 6 -10 10 -16 10 -5
0 -9 -4 -9 -10z"/>
<path d="M2450 3144 c-30 -8 -71 -28 -90 -43 -32 -27 -35 -32 -32 -77 2 -27 7
-50 12 -52 5 -2 6 -11 3 -19 -5 -12 -2 -15 11 -10 13 5 16 2 14 -21 -3 -26 -1
-27 43 -28 26 0 54 -4 63 -7 10 -4 46 -9 82 -12 53 -5 65 -3 70 10 4 10 13 13
25 10 11 -4 19 -2 19 5 0 6 10 8 25 4 19 -5 25 -2 25 9 0 9 8 18 18 21 19 7
62 68 62 89 0 21 -38 56 -68 63 -15 4 -37 13 -50 21 -21 13 -77 30 -152 46
-14 3 -50 -1 -80 -9z m10 -124 c0 -5 -5 -10 -11 -10 -5 0 -7 5 -4 10 3 6 8 10
11 10 2 0 4 -4 4 -10z m111 -23 c-13 -13 -26 -3 -16 12 3 6 11 8 17 5 6 -4 6
-10 -1 -17z m113 0 c29 -21 15 -50 -37 -76 -56 -28 -68 -23 -33 12 14 15 26
38 26 52 0 28 16 32 44 12z m-141 -82 l32 -16 -50 8 c-27 4 -69 8 -92 7 -24 0
-43 4 -43 7 0 4 21 23 47 42 l48 35 13 -33 c8 -19 27 -40 45 -50z m37 46 c0
-6 -4 -13 -10 -16 -5 -3 -10 1 -10 9 0 9 5 16 10 16 6 0 10 -4 10 -9z"/>
<path d="M2255 2420 c-4 -6 -25 -20 -48 -31 l-41 -22 -41 21 c-22 11 -57 23
-79 26 -46 6 -98 -3 -90 -16 4 -6 -2 -8 -15 -3 -23 7 -26 -1 -11 -25 9 -14 60
-19 235 -21 22 -1 67 10 100 24 55 23 96 27 64 6 -9 -6 -1 -9 23 -9 28 0 40 5
48 21 10 19 10 20 -9 10 -11 -6 -26 -11 -33 -10 -7 0 -3 4 10 9 12 5 22 14 22
20 0 13 -127 13 -135 0z"/>
<path d="M2212 2148 c-26 -16 -31 -17 -42 -3 -9 10 -31 15 -71 15 -51 0 -66
-5 -109 -34 -27 -19 -70 -42 -95 -51 -25 -10 -45 -22 -45 -27 0 -5 18 -28 41
-51 22 -23 50 -59 61 -79 11 -20 30 -39 40 -42 12 -3 17 -9 13 -16 -5 -9 -1
-10 14 -5 15 4 21 2 21 -8 0 -7 12 -19 26 -25 14 -7 23 -8 20 -4 -3 5 39 9 92
10 151 1 213 36 269 152 15 30 35 61 45 68 10 7 16 17 13 22 -3 5 -45 28 -93
52 -99 48 -155 55 -200 26z m-68 -44 c9 -3 16 -10 16 -16 0 -5 -4 -7 -9 -4 -5
3 -11 -1 -15 -9 -5 -13 -46 -22 -46 -10 0 5 33 45 36 45 1 0 9 -3 18 -6z m126
-4 c0 -5 8 -10 18 -10 22 -1 -46 -39 -70 -40 -10 0 -18 7 -18 15 0 8 5 15 10
15 6 0 10 -4 10 -10 0 -5 5 -10 12 -10 6 0 8 3 5 6 -8 9 11 44 23 44 6 0 10
-4 10 -10z m43 -47 c-7 -2 -21 -2 -30 0 -10 3 -4 5 12 5 17 0 24 -2 18 -5z
m107 -29 c0 -14 -66 -74 -81 -74 -10 0 -19 -4 -19 -8 0 -5 -19 -19 -42 -32
-52 -29 -115 -31 -155 -4 -15 10 -35 23 -44 29 -9 5 -39 26 -67 46 l-51 35 77
3 c42 1 77 3 78 4 4 3 304 4 304 1z"/>
<path d="M1780 980 c0 -12 7 -20 18 -20 13 0 14 2 3 9 -7 5 -10 14 -7 20 4 6
2 11 -3 11 -6 0 -11 -9 -11 -20z"/>
<path d="M55 1409 c-4 -6 -5 -12 -2 -15 2 -3 7 2 10 11 7 17 1 20 -8 4z"/>
<path d="M2750 4384 c0 -6 7 -19 15 -30 8 -10 14 -14 14 -9 0 6 -6 19 -14 29
-8 11 -15 15 -15 10z"/>
<path d="M555 4257 c-8 -4 -15 -13 -15 -19 0 -7 4 -7 13 0 7 6 23 9 35 5 15
-3 22 -1 22 9 0 15 -32 18 -55 5z"/>
<path d="M283 3545 c0 -22 2 -30 4 -17 2 12 2 30 0 40 -3 9 -5 -1 -4 -23z"/>
<path d="M241 3164 c0 -11 3 -14 6 -6 3 7 2 16 -1 19 -3 4 -6 -2 -5 -13z"/>
<path d="M3705 3080 c-18 -8 -17 -9 8 -9 16 -1 26 3 22 9 -3 6 -7 10 -8 9 -1
0 -11 -4 -22 -9z"/>
<path d="M296 2973 c-6 -14 -5 -15 5 -6 7 7 10 15 7 18 -3 3 -9 -2 -12 -12z"/>
<path d="M228 2963 c-10 -2 -18 -9 -18 -15 0 -6 10 -8 23 -4 12 3 26 6 30 6 5
0 5 5 2 10 -6 10 -9 11 -37 3z"/>
<path d="M153 2945 c-19 -21 -16 -26 15 -19 35 9 39 13 22 24 -19 12 -23 12
-37 -5z"/>
<path d="M3961 2694 c0 -11 3 -14 6 -6 3 7 2 16 -1 19 -3 4 -6 -2 -5 -13z"/>
<path d="M3996 2532 c-3 -6 -1 -14 5 -17 15 -10 25 3 12 16 -7 7 -13 7 -17 1z"/>
<path d="M3944 2382 c-2 -37 -2 -37 8 -9 6 16 6 33 2 37 -5 5 -10 -7 -10 -28z"/>
<path d="M10 2380 c0 -15 21 -23 32 -12 6 6 2 11 -11 15 -12 3 -21 1 -21 -3z"/>
<path d="M3965 2330 c9 -15 45 -32 45 -22 0 5 -12 14 -26 20 -14 7 -23 8 -19
2z"/>
</g>
</svg>
